<?xml version="1.0" encoding="UTF-8"?>
<svg id="Layer_1" xmlns="http://www.w3.org/2000/svg" version="1.1" viewBox="0 0 128 128">
  <!-- Generator: Adobe Illustrator 29.2.1, SVG Export Plug-In . SVG Version: 2.1.0 Build 116)  -->
  <defs>
    <style>
      .st0 {
        fill: #f47920;
      }
    </style>
  </defs>
  <path class="st0" d="M20.9,23.1l1.9-1.9c3.9-3.9,10.8-3.9,14.7,0l73.6,73.6c3.9,3.9,3.9,10.8,0,14.6l-1.9,1.9c-3.9,3.9-10.8,3.9-14.7,0L20.9,37.7c-3.9-3.9-3.9-10.8,0-14.6Z"/>
  <path class="st0" d="M111.1,37.7L37.5,111.4c-3.9,3.9-10.8,3.9-14.7,0l-1.9-1.9c-3.9-3.9-3.9-10.8,0-14.6L94.5,21.1c3.9-3.9,10.8-3.9,14.7,0l1.9,1.9c3.9,3.9,3.9,10.8,0,14.6Z"/>
</svg>