<?xml version="1.0" encoding="UTF-8"?>
<svg id="Layer_1" data-name="Layer 1" xmlns="http://www.w3.org/2000/svg" viewBox="0 0 668 502">
  <path d="M160.2,486.24c-49.44,0-86.81-14.93-112.17-44.87-25.36-29.9-38.04-71.51-38.04-124.85s9.08-93.64,27.31-128.75c18.2-35.11,40.63-64.38,67.3-87.78,26.64-23.41,53.31-41.94,79.98-55.6,26.64-13.65,49.07-23.71,67.3-30.24l23.41,48.77c-22.13,9.11-45.54,21.46-70.22,37.06-24.72,15.6-45.84,37.4-63.4,65.35-17.56,27.98-26.34,66.66-26.34,116.07,10.4-5.18,20.15-8.44,29.26-9.75,9.08-1.28,18.84-1.95,29.26-1.95,37.71,0,65.35,10.43,82.91,31.21,17.56,20.82,26.33,44.87,26.33,72.18,0,31.21-10.73,57.88-32.19,79.98-21.46,22.13-51.69,33.16-90.71,33.16ZM530.85,486.24c-49.44,0-86.81-14.93-112.17-44.87-25.36-29.9-38.04-71.51-38.04-124.85s9.08-93.64,27.31-128.75c18.2-35.11,40.63-64.38,67.3-87.78,26.64-23.41,53.31-41.94,79.98-55.6,26.64-13.65,49.07-23.71,67.3-30.24l23.41,48.77c-22.13,9.11-45.54,21.46-70.23,37.06-24.72,15.6-45.84,37.4-63.4,65.35-17.56,27.98-26.33,66.66-26.33,116.07,10.39-5.18,20.15-8.44,29.26-9.75,9.09-1.28,18.84-1.95,29.26-1.95,37.71,0,65.35,10.43,82.91,31.21,17.56,20.82,26.34,44.87,26.34,72.18,0,31.21-10.73,57.88-32.19,79.98-21.46,22.13-51.69,33.16-90.71,33.16Z"/>
</svg>