<?xml version="1.0" encoding="UTF-8"?>
<svg id="Layer_1" xmlns="http://www.w3.org/2000/svg" version="1.1" viewBox="0 0 128 128">
  <!-- Generator: Adobe Illustrator 29.2.1, SVG Export Plug-In . SVG Version: 2.1.0 Build 116)  -->
  <defs>
    <style>
      .st0 {
        fill: #f47920;
      }

      .st1 {
        fill: #fdd700;
      }
    </style>
  </defs>
  <ellipse class="st0" cx="64" cy="64.6" rx="30.2" ry="30.2"/>
  <path class="st0" d="M64.3,28.1h-.7c-1.3,0-2.3-1-2.3-2.3V3.3c0-1.3,1-2.3,2.3-2.3h.7c1.3,0,2.3,1,2.3,2.3v22.6c0,1.3-1,2.2-2.3,2.2Z"/>
  <path class="st0" d="M64.3,128h-.7c-1.3,0-2.3-1-2.3-2.3v-22.6c0-1.3,1-2.3,2.3-2.3h.7c1.3,0,2.3,1,2.3,2.3v22.6c0,1.3-1,2.3-2.3,2.3Z"/>
  <path class="st1" d="M78.4,30.6l-.6-.3c-1.2-.5-1.8-1.9-1.3-3.1l4.6-11.1c.5-1.2,1.8-1.8,3.1-1.3l.6.3c1.2.5,1.8,1.9,1.3,3.1l-4.6,11.1c-.5,1.2-1.8,1.7-3.1,1.3Z"/>
  <path class="st1" d="M43.9,113.8l-.6-.3c-1.2-.5-1.7-1.9-1.3-3l4.7-11.2c.5-1.2,1.8-1.7,3-1.3l.6.3c1.2.5,1.7,1.9,1.3,3l-4.7,11.2c-.4,1.2-1.8,1.7-3,1.3Z"/>
  <path class="st0" d="M100.3,64.8v-.8c0-1.3,1-2.3,2.3-2.3h22.6c1.3,0,2.3,1,2.3,2.3v.7c0,1.3-1,2.3-2.3,2.3h-22.6c-1.3,0-2.3-.9-2.3-2.2Z"/>
  <path class="st0" d="M.7,64.8v-.8c0-1.3,1-2.3,2.3-2.3h22.6c1.3,0,2.3,1,2.3,2.3v.7c0,1.3-1,2.3-2.3,2.3H2.9c-1.3,0-2.3-.9-2.3-2.2Z"/>
  <path class="st0" d="M89.1,90l.4-.4c.8-.8,2.3-.8,3.2,0l16,16c.8.8.8,2.3,0,3.2l-.4.4c-.8.8-2.3.8-3.2,0l-16-16c-.9-1-.9-2.3,0-3.2Z"/>
  <path class="st0" d="M18.6,19.3l.4-.4c.8-.8,2.3-.8,3.2,0l16,16c.8.8.8,2.3,0,3.2l-.4.4c-.8.8-2.3.8-3.2,0l-16-16c-.8-.8-.8-2.3,0-3.2Z"/>
  <path class="st0" d="M38.1,89.7l.4.4c.8.8.8,2.3,0,3.2l-16,16c-.8.8-2.3.8-3.2,0l-.4-.4c-.8-.8-.8-2.3,0-3.2l16-16c.8-.8,2.3-.8,3.2,0Z"/>
  <path class="st0" d="M108.5,19.1l.4.4c.8.8.8,2.3,0,3.2l-16,16c-.8.8-2.3.8-3.2,0l-.4-.4c-.8-.8-.8-2.3,0-3.2l16-16c.8-.8,2.3-.8,3.2,0Z"/>
  <path class="st1" d="M97.7,78.6l.3-.6c.5-1.2,1.8-1.8,3.1-1.3l11.1,4.6c1.2.5,1.8,1.9,1.3,3.1l-.3.6c-.5,1.2-1.8,1.8-3.1,1.3l-11.1-4.6c-1.2-.4-1.8-1.8-1.3-3.1Z"/>
  <path class="st1" d="M14.7,44.1l.3-.6c.5-1.2,1.8-1.7,3-1.3l11.2,4.7c1.2.5,1.7,1.9,1.3,3l-.3.6c-.5,1.2-1.8,1.7-3,1.3l-11.2-4.7c-1.2-.5-1.8-1.8-1.3-3Z"/>
  <path class="st1" d="M98.1,50.9l-.3-.6c-.5-1.2,0-2.6,1.3-3.1l11.2-4.5c1.2-.5,2.6,0,3.1,1.3l.3.6c.5,1.2,0,2.6-1.3,3.1l-11.2,4.5c-1.2.5-2.6,0-3.1-1.3Z"/>
  <path class="st1" d="M14.7,84.6l-.3-.6c-.5-1.2,0-2.6,1.3-3l11.3-4.5c1.2-.5,2.6,0,3,1.3l.3.6c.5,1.2,0,2.6-1.3,3l-11.3,4.5c-1.1.6-2.4,0-3-1.3Z"/>
  <path class="st1" d="M78,98.2l.6-.3c1.2-.5,2.6,0,3.1,1.3l4.7,11.1c.5,1.2,0,2.6-1.3,3.1l-.6.3c-1.2.5-2.6,0-3.1-1.3l-4.7-11.1c-.5-1.2,0-2.6,1.3-3.1Z"/>
  <path class="st1" d="M42.9,15.2l.6-.3c1.2-.5,2.6,0,3,1.2l4.8,11.2c.5,1.2,0,2.6-1.2,3l-.6.3c-1.2.5-2.6,0-3-1.2l-4.8-11.2c-.5-1.2,0-2.5,1.2-3Z"/>
</svg>